<svg xmlns="http://www.w3.org/2000/svg" width="55.024" height="45.192" viewBox="0 0 55.024 45.192">
  <g id="module-m2" transform="translate(-295.056 -199.332)">
    <path id="Path_2313" data-name="Path 2313" d="M332.7,220.5l-.973-1.506h-16.67V220.5Z" transform="translate(-15.403 -15.142)" fill="#400c7a"/>
    <path id="Path_2314" data-name="Path 2314" d="M447.686,220.5h17.643v-1.506h-16.67Z" transform="translate(-117.548 -15.142)" fill="#400c7a"/>
    <path id="Path_2315" data-name="Path 2315" d="M333.672,227.054l-.973-1.506H315.056v1.506Z" transform="translate(-15.403 -20.189)" fill="#ff0d89"/>
    <path id="Path_2316" data-name="Path 2316" d="M443.453,227.054h18.616v-1.506H444.426Z" transform="translate(-114.288 -20.189)" fill="#ff0d89"/>
    <path id="Path_2317" data-name="Path 2317" d="M449.22,233.607h19.589V232.1H450.193Z" transform="translate(-118.729 -25.237)" fill="#5ac8fa"/>
    <path id="Path_2318" data-name="Path 2318" d="M344.645,233.607l-.973-1.506H325.056v1.506Z" transform="translate(-23.105 -25.237)" fill="#5ac8fa"/>
    <path id="Path_2319" data-name="Path 2319" d="M335.618,240.161l-.973-1.506H315.056v1.506Z" transform="translate(-15.403 -30.284)" fill="#007aff"/>
    <path id="Path_2320" data-name="Path 2320" d="M434.987,240.161h20.562v-1.506H435.96Z" transform="translate(-107.768 -30.284)" fill="#007aff"/>
    <path id="Path_2321" data-name="Path 2321" d="M430.754,246.715h21.535v-1.506H431.727Z" transform="translate(-104.508 -35.331)" fill="#5ce886"/>
    <path id="Path_2322" data-name="Path 2322" d="M336.591,246.715l-.973-1.506H315.056v1.506Z" transform="translate(-15.403 -35.331)" fill="#5ce886"/>
    <path id="Path_2323" data-name="Path 2323" d="M337.564,253.269l-.973-1.506H315.056v1.506Z" transform="translate(-15.403 -40.379)" fill="#fe2c0c"/>
    <path id="Path_2324" data-name="Path 2324" d="M426.521,253.269h22.508v-1.506H427.494Z" transform="translate(-101.248 -40.379)" fill="#fe2c0c"/>
    <path id="Path_2325" data-name="Path 2325" d="M338.537,259.822l-.973-1.506H315.056v1.506Z" transform="translate(-15.403 -45.426)" fill="#fb9c0d"/>
    <path id="Path_2326" data-name="Path 2326" d="M422.288,259.822h23.481v-1.506H423.261Z" transform="translate(-97.987 -45.426)" fill="#fb9c0d"/>
    <path id="Path_2327" data-name="Path 2327" d="M339.113,265.784v-.022l-.576-.892H315.056v1.506h48.128V264.87H339.7Z" transform="translate(-15.403 -50.474)" fill="#ffbf00"/>
    <rect id="Rectangle_777" data-name="Rectangle 777" width="48.129" height="1.506" transform="translate(295.055 215.903)" fill="#400c7a"/>
    <rect id="Rectangle_778" data-name="Rectangle 778" width="48.129" height="1.506" transform="translate(301.951 217.409)" fill="#ff0d89"/>
    <path id="Path_2328" data-name="Path 2328" d="M315.056,286.037h13.751v-.481l.321.481h19.985l.321-.481v.481h13.751v-1.506H315.056Z" transform="translate(-15.403 -65.616)" fill="#5ac8fa"/>
    <rect id="Rectangle_779" data-name="Rectangle 779" width="13.751" height="1.506" transform="translate(299.653 220.422)" fill="#007aff"/>
    <path id="Path_2329" data-name="Path 2329" d="M376.277,291.085l1.005,1.506h17.974l1.005-1.506Z" transform="translate(-62.552 -70.663)" fill="#007aff"/>
    <rect id="Rectangle_780" data-name="Rectangle 780" width="13.751" height="1.506" transform="translate(334.03 220.422)" fill="#007aff"/>
    <path id="Path_2330" data-name="Path 2330" d="M380.65,297.638l1.005,1.506h15.964l1.005-1.506Z" transform="translate(-65.92 -75.71)" fill="#5ce886"/>
    <rect id="Rectangle_781" data-name="Rectangle 781" width="13.751" height="1.506" transform="translate(299.653 221.928)" fill="#5ce886"/>
    <rect id="Rectangle_782" data-name="Rectangle 782" width="13.751" height="1.506" transform="translate(334.03 221.928)" fill="#5ce886"/>
    <path id="Path_2331" data-name="Path 2331" d="M385.023,304.192l1.005,1.506h13.954l1.005-1.506Z" transform="translate(-69.288 -80.758)" fill="#fe2c0c"/>
    <rect id="Rectangle_783" data-name="Rectangle 783" width="13.751" height="1.506" transform="translate(334.03 223.435)" fill="#fe2c0c"/>
    <rect id="Rectangle_784" data-name="Rectangle 784" width="13.751" height="1.506" transform="translate(299.653 223.435)" fill="#fe2c0c"/>
    <path id="Path_2332" data-name="Path 2332" d="M389.4,310.746l1.005,1.506h11.943l1.005-1.506Z" transform="translate(-72.656 -85.805)" fill="#fb9c0d"/>
    <rect id="Rectangle_785" data-name="Rectangle 785" width="13.751" height="1.506" transform="translate(334.03 224.941)" fill="#fb9c0d"/>
    <rect id="Rectangle_786" data-name="Rectangle 786" width="13.751" height="1.506" transform="translate(299.653 224.941)" fill="#fb9c0d"/>
    <rect id="Rectangle_787" data-name="Rectangle 787" width="13.751" height="1.506" transform="translate(301.951 226.447)" fill="#ffbf00"/>
    <path id="Path_2333" data-name="Path 2333" d="M403.769,317.3l1.005,1.506h9.933l1.005-1.506Z" transform="translate(-83.725 -90.852)" fill="#ffbf00"/>
    <rect id="Rectangle_788" data-name="Rectangle 788" width="13.751" height="1.506" transform="translate(336.329 226.447)" fill="#ffbf00"/>
    <rect id="Rectangle_789" data-name="Rectangle 789" width="13.751" height="1.506" transform="translate(299.653 227.954)" fill="#400c7a"/>
    <path id="Path_2334" data-name="Path 2334" d="M398.142,323.854l1.005,1.506h7.923l1.005-1.506Z" transform="translate(-79.392 -95.9)" fill="#400c7a"/>
    <rect id="Rectangle_790" data-name="Rectangle 790" width="13.751" height="1.506" transform="translate(334.03 227.954)" fill="#400c7a"/>
    <path id="Path_2335" data-name="Path 2335" d="M402.515,330.407l1.005,1.506h5.913l1.005-1.506Z" transform="translate(-82.76 -100.947)" fill="#ff0d89"/>
    <rect id="Rectangle_791" data-name="Rectangle 791" width="13.751" height="1.506" transform="translate(334.03 229.46)" fill="#ff0d89"/>
    <rect id="Rectangle_792" data-name="Rectangle 792" width="13.751" height="1.506" transform="translate(299.653 229.46)" fill="#ff0d89"/>
    <path id="Path_2336" data-name="Path 2336" d="M406.888,336.961l1.005,1.506h3.9l1.005-1.506Z" transform="translate(-86.127 -105.994)" fill="#5ac8fa"/>
    <rect id="Rectangle_793" data-name="Rectangle 793" width="13.751" height="1.506" transform="translate(334.03 230.967)" fill="#5ac8fa"/>
    <rect id="Rectangle_794" data-name="Rectangle 794" width="13.751" height="1.506" transform="translate(299.653 230.967)" fill="#5ac8fa"/>
    <path id="Path_2337" data-name="Path 2337" d="M411.261,343.515l1.005,1.506h1.892l1.005-1.506Z" transform="translate(-89.495 -111.042)" fill="#007aff"/>
    <rect id="Rectangle_795" data-name="Rectangle 795" width="13.751" height="1.506" transform="translate(336.329 232.473)" fill="#007aff"/>
    <rect id="Rectangle_796" data-name="Rectangle 796" width="13.751" height="1.506" transform="translate(301.951 232.473)" fill="#007aff"/>
    <path id="Path_2338" data-name="Path 2338" d="M417.526,350.069h-1.892l.939,1.407v.021Z" transform="translate(-92.863 -116.089)" fill="#5ce886"/>
    <rect id="Rectangle_797" data-name="Rectangle 797" width="13.751" height="1.506" transform="translate(299.653 233.979)" fill="#5ce886"/>
    <rect id="Rectangle_798" data-name="Rectangle 798" width="13.751" height="1.506" transform="translate(334.03 233.979)" fill="#5ce886"/>
    <rect id="Rectangle_799" data-name="Rectangle 799" width="13.751" height="1.506" transform="translate(299.653 235.486)" fill="#fe2c0c"/>
    <rect id="Rectangle_800" data-name="Rectangle 800" width="13.751" height="1.506" transform="translate(334.03 235.486)" fill="#fe2c0c"/>
    <rect id="Rectangle_801" data-name="Rectangle 801" width="13.751" height="1.506" transform="translate(299.653 236.992)" fill="#fb9c0d"/>
    <rect id="Rectangle_802" data-name="Rectangle 802" width="13.751" height="1.506" transform="translate(334.03 236.992)" fill="#fb9c0d"/>
    <rect id="Rectangle_803" data-name="Rectangle 803" width="13.751" height="1.506" transform="translate(299.653 238.499)" fill="#ffbf00"/>
    <rect id="Rectangle_804" data-name="Rectangle 804" width="13.751" height="1.506" transform="translate(334.03 238.499)" fill="#ffbf00"/>
    <rect id="Rectangle_805" data-name="Rectangle 805" width="13.751" height="1.506" transform="translate(299.653 240.005)" fill="#400c7a"/>
    <rect id="Rectangle_806" data-name="Rectangle 806" width="13.751" height="1.506" transform="translate(334.03 240.005)" fill="#400c7a"/>
    <rect id="Rectangle_807" data-name="Rectangle 807" width="13.751" height="1.506" transform="translate(299.653 241.511)" fill="#ff0d89"/>
    <rect id="Rectangle_808" data-name="Rectangle 808" width="13.751" height="1.506" transform="translate(334.03 241.511)" fill="#ff0d89"/>
    <rect id="Rectangle_809" data-name="Rectangle 809" width="13.751" height="1.506" transform="translate(297.354 243.018)" fill="#5ac8fa"/>
    <rect id="Rectangle_810" data-name="Rectangle 810" width="13.751" height="1.506" transform="translate(331.732 243.018)" fill="#5ac8fa"/>
    <path id="Path_2339" data-name="Path 2339" d="M305.056,200.839H319.78l-.973-1.506H305.056Z" transform="translate(-7.702 0)" fill="#fe2c0c"/>
    <path id="Path_2340" data-name="Path 2340" d="M465.109,199.332H451.358l-.973,1.506h14.724v-1.506Z" transform="translate(-119.626 0)" fill="#fe2c0c"/>
    <path id="Path_2341" data-name="Path 2341" d="M340.753,207.392l-.973-1.506H325.056v1.506Z" transform="translate(-23.105 -5.047)" fill="#fb9c0d"/>
    <path id="Path_2342" data-name="Path 2342" d="M466.152,207.392h15.7v-1.506H467.125Z" transform="translate(-131.769 -5.047)" fill="#fb9c0d"/>
    <path id="Path_2343" data-name="Path 2343" d="M451.919,213.946h16.67V212.44h-15.7Z" transform="translate(-120.808 -10.095)" fill="#ffbf00"/>
    <path id="Path_2344" data-name="Path 2344" d="M331.726,213.946l-.973-1.506h-15.7v1.506Z" transform="translate(-15.403 -10.095)" fill="#ffbf00"/>
  </g>
</svg>
