<svg xmlns="http://www.w3.org/2000/svg" width="218.799" height="24.558" viewBox="0 0 218.799 24.558">
  <g id="module-logo-full" transform="translate(-353.81 -196.94)">
    <g id="Group_170" data-name="Group 170" transform="translate(353.81 196.94)">
      <path id="Path_2063" data-name="Path 2063" d="M376.916,220.646h-5.282V207.211l-5.975,9.8h-.594l-5.975-9.8v13.435h-5.28V197.54h5.28l6.272,10.265,6.272-10.265h5.282Z" transform="translate(-353.81 -196.55)" fill="#202025"/>
      <path id="Path_2064" data-name="Path 2064" d="M369.61,209.975a8.747,8.747,0,1,1,8.747,8.714A8.65,8.65,0,0,1,369.61,209.975Zm12.542,0a3.8,3.8,0,1,0-3.8,3.894A3.7,3.7,0,0,0,382.152,209.975Z" transform="translate(-343.539 -194.131)" fill="#202025"/>
      <path id="Path_2065" data-name="Path 2065" d="M399.169,197.54v23.106h-4.952v-1.553a6.2,6.2,0,0,1-4.917,2.015c-4.325,0-7.891-3.8-7.891-8.714s3.566-8.714,7.891-8.714a6.2,6.2,0,0,1,4.917,2.013V197.54Zm-4.952,14.854a3.929,3.929,0,1,0-3.929,4.026A3.769,3.769,0,0,0,394.217,212.394Z" transform="translate(-335.869 -196.55)" fill="#202025"/>
      <path id="Path_2066" data-name="Path 2066" d="M410.073,201.541v16.5h-4.952v-1.553a5.64,5.64,0,0,1-4.719,2.015c-3.335,0-6.173-2.376-6.173-6.833V201.541h4.952v9.407a2.721,2.721,0,0,0,2.871,3c1.815,0,3.069-1.056,3.069-3.4v-9.011Z" transform="translate(-327.535 -193.949)" fill="#202025"/>
      <path id="Path_2067" data-name="Path 2067" d="M406.029,196.94h4.95v24.1h-4.95Z" transform="translate(-319.864 -196.94)" fill="#202025"/>
      <path id="Path_2068" data-name="Path 2068" d="M419.938,214.265a4.315,4.315,0,0,0,3.17-1.254l3.96,2.279a8.375,8.375,0,0,1-7.2,3.4c-5.645,0-9.143-3.8-9.143-8.714a8.461,8.461,0,0,1,8.78-8.714c4.82,0,8.384,3.729,8.384,8.714a9.592,9.592,0,0,1-.2,1.98H415.976C416.6,213.671,418.123,214.265,419.938,214.265Zm3.038-6.008a3.718,3.718,0,0,0-7.1,0Z" transform="translate(-316.809 -194.131)" fill="#202025"/>
    </g>
    <g id="Group_171" data-name="Group 171" transform="translate(474.957 197.138)">
      <path id="Path_2069" data-name="Path 2069" d="M427.229,215.579l4.554-2.64a4.841,4.841,0,0,0,4.853,3.2c2.508,0,3.135-.99,3.135-1.881,0-1.419-1.32-1.98-4.785-2.937-3.434-.957-6.8-2.609-6.8-7.031,0-4.457,3.764-7.031,7.757-7.031a8.961,8.961,0,0,1,8.45,5.214l-4.457,2.609a4.047,4.047,0,0,0-3.993-2.675c-1.65,0-2.475.827-2.475,1.751,0,1.056.561,1.782,4.158,2.871,3.5,1.056,7.427,2.277,7.427,7.163,0,4.457-3.566,7.1-8.582,7.1C431.618,221.29,428.516,218.98,427.229,215.579Z" transform="translate(-427.229 -196.93)" fill="#202025"/>
      <path id="Path_2070" data-name="Path 2070" d="M446.02,208.114v5.843c0,1.419,1.223,1.551,3.4,1.419v4.49c-6.47.66-8.353-1.287-8.353-5.909v-5.843h-2.64v-4.752h2.64v-3.135l4.952-1.487v4.622h3.4v4.752Z" transform="translate(-419.949 -195.968)" fill="#202025"/>
      <path id="Path_2071" data-name="Path 2071" d="M462.692,201.541v16.5H457.74v-1.553a5.64,5.64,0,0,1-4.719,2.015c-3.333,0-6.173-2.376-6.173-6.833V201.541H451.8v9.407a2.721,2.721,0,0,0,2.871,3c1.817,0,3.069-1.056,3.069-3.4v-9.011Z" transform="translate(-414.475 -194.147)" fill="#202025"/>
      <path id="Path_2072" data-name="Path 2072" d="M475.906,197.54v23.106h-4.95v-1.553a6.2,6.2,0,0,1-4.919,2.015c-4.323,0-7.889-3.8-7.889-8.714s3.566-8.714,7.889-8.714a6.2,6.2,0,0,1,4.919,2.013V197.54Zm-4.95,14.854a3.929,3.929,0,1,0-3.929,4.026A3.77,3.77,0,0,0,470.956,212.394Z" transform="translate(-407.129 -196.748)" fill="#202025"/>
      <path id="Path_2073" data-name="Path 2073" d="M470.808,200.03A2.97,2.97,0,1,1,473.78,203,3,3,0,0,1,470.808,200.03Zm.495,4.424h4.952v16.5H471.3Z" transform="translate(-398.9 -197.06)" fill="#202025"/>
      <path id="Path_2074" data-name="Path 2074" d="M475.808,209.975a8.747,8.747,0,1,1,8.747,8.714A8.65,8.65,0,0,1,475.808,209.975Zm12.542,0a3.8,3.8,0,1,0-3.8,3.894A3.7,3.7,0,0,0,488.35,209.975Z" transform="translate(-395.649 -194.329)" fill="#202025"/>
    </g>
  </g>
</svg>
